<svg
  width="128"
  height="128"
  viewBox="0 0 109 104"
  fill="none"
  xmlns="http://www.w3.org/2000/svg"
>
  <path
    d="M91.54.748c3.291-1.87 7.342-.071 8.195 3.616 1.52 6.571 3.507 16.428 3.738 23.907.141 4.573-.317 10.155-.915 15.196a40.3 40.3 0 0 1 4.889 19.304c0 22.367-18.132 40.5-40.5 40.5h-25c-22.367 0-40.5-18.133-40.5-40.5a40.3 40.3 0 0 1 4.93-19.381c-.593-5.02-1.045-10.569-.904-15.12.23-7.478 2.218-17.335 3.738-23.906.853-3.687 4.904-5.487 8.194-3.616 6.202 3.527 15.451 9.27 21.067 15.023 1.808 1.85 3.64 4.115 5.39 6.5h21.222c1.75-2.384 3.581-4.65 5.388-6.5C76.09 10.018 85.34 4.275 91.542.748"
    fill="#e69"
  /><path
    d="M70.447 79.271s-1.333 9-8 9-8-9-8-9-1.333 9-8 9-8-9-8-9"
    stroke="#000"
    stroke-width="6"
    stroke-linecap="round"
    stroke-linejoin="round"
  /><path
    stroke="#000"
    stroke-width="6"
    stroke-linecap="round"
    d="M17.855 76.717 3 78.805m18.504 6.457L7.015 89.144m98.675-10.339-14.854-2.087m10.633 12.426L86.98 85.26"
  /><circle cx="79.447" cy="61.271" r="10" fill="#000" /><circle
    cx="29.447"
    cy="61.271"
    r="10"
    fill="#000"
  />
</svg>
